PathFileType	4	(X/Y/Z)	 s03c0101.trc
DataRate	CameraRate	NumFrames	NumMarkers	Units	OrigDataRate	OrigDataStartFrame	OrigNumFrames
200	200	6	52	mm	200	1251	2000
Frame#	Time	racr			lacr			c7			jug			rlel			rdr			llel			ldr			s2			lic			ric			lasi			rasi			rpsi			lpsi			rgt			lgt			rth1			rth2			rth3			rth4			rlfc			rmfc			rsh1			rsh2			rsh3			rsh4			rlmal			rmmal			rcal			rtoe			rmt5			rmt1			lth1			lth2			lth4			lth3			llfc			lmfc			lsh1			lsh2			lsh3			lsh4			llmal			lmmal			lcal			ltoe			lmt1			lmt5			SBIKE			LBIKE			RBIKE			
		X1	Y1	Z1	X2	Y2	Z2	X3	Y3	Z3	X4	Y4	Z4	X5	Y5	Z5	X6	Y6	Z6	X7	Y7	Z7	X8	Y8	Z8	X9	Y9	Z9	X10	Y10	Z10	X11	Y11	Z11	X12	Y12	Z12	X13	Y13	Z13	X14	Y14	Z14	X15	Y15	Z15	X16	Y16	Z16	X17	Y17	Z17	X18	Y18	Z18	X19	Y19	Z19	X20	Y20	Z20	X21	Y21	Z21	X22	Y22	Z22	X23	Y23	Z23	X24	Y24	Z24	X25	Y25	Z25	X26	Y26	Z26	X27	Y27	Z27	X28	Y28	Z28	X29	Y29	Z29	X30	Y30	Z30	X31	Y31	Z31	X32	Y32	Z32	X33	Y33	Z33	X34	Y34	Z34	X35	Y35	Z35	X36	Y36	Z36	X37	Y37	Z37	X38	Y38	Z38	X39	Y39	Z39	X40	Y40	Z40	X41	Y41	Z41	X42	Y42	Z42	X43	Y43	Z43	X44	Y44	Z44	X45	Y45	Z45	X46	Y46	Z46	X47	Y47	Z47	X48	Y48	Z48	X49	Y49	Z49	X50	Y50	Z50	X51	Y51	Z51	X52	Y52	Z52	
1251	6.2550	494.694080	1398.092381	-136.598415	413.786648	1408.941628	-436.897093	393.024193	1494.859971	-274.371242	402.236686	1321.182873	-280.822001	549.240508	1154.038225	-0.144249	742.925349	938.311343	-43.320695	506.656302	1156.821339	-484.822398	737.005709	950.602234	-419.034053	-108.457893	1202.747734	-165.859164	18.400100	1260.113421	-374.691921	87.521644	1236.327326	-13.702231	58.768266	1191.766293	-338.349508	109.159242	1170.757838	-62.999323	-72.952724	1251.483089	-121.262838	-87.640677	1260.021422	-200.124315	22.874774	1107.531440	-1.097684	-6.696818	1184.163043	-388.277664	101.796363	966.965926	11.085885	171.473952	911.459830	13.071143	205.503407	833.000748	3.097722	200.269122	933.289672	4.088394	264.342088	719.704790	-30.413539	270.888070	706.980450	-148.868777	211.457073	561.222304	-7.852677	210.347455	472.839118	-23.239286	164.703745	397.359057	-28.210107	240.227531	467.693902	-47.403399	119.804469	272.690256	-55.722144	151.091098	283.716168	-133.014475	55.190159	249.335432	-93.756500	348.245581	147.467142	-108.283155	230.223607	161.568274	-33.953153	259.635028	179.538257	-146.269210	117.898079	1122.770880	-438.175345	202.816903	1117.273317	-453.476858	216.841054	1148.377441	-438.447126	275.312083	1067.426738	-470.131250	409.314071	1024.055961	-474.520168	432.634366	1010.331573	-342.457374	323.555232	873.545695	-472.315371	305.365888	793.676150	-445.367598	244.235969	728.925395	-430.198854	336.186910	782.039003	-426.444750	179.568298	626.745048	-399.294655	220.677829	636.545340	-314.653926	108.617939	601.720067	-346.405568	399.124288	497.492998	-351.924584	308.921917	522.840085	-307.882074	277.615244	513.590041	-421.854093	-211.651612	947.149042	-224.840105	-4.539591	84.711989	-432.577265	-8.836681	80.935048	-32.218232	
1252	6.2600	495.462789	1397.222696	-139.057015	412.120449	1409.027398	-438.644929	392.883581	1494.705151	-276.053592	401.470503	1321.013940	-282.893512	548.840039	1153.599424	-0.755027	742.755111	938.117254	-43.221586	505.397848	1157.214865	-485.260909	736.273991	951.508456	-419.318398	-108.331710	1203.642167	-165.377614	17.619938	1261.740694	-373.759948	87.952449	1236.973280	-13.215595	58.296953	1192.266357	-338.034099	108.949681	1170.937159	-62.351194	-72.848106	1252.487898	-120.817705	-87.555568	1261.232754	-199.642042	22.898514	1108.314064	-0.912398	-6.856269	1185.014989	-388.646062	102.732532	968.174856	11.308371	172.835494	913.195682	13.441188	207.573101	835.019633	3.866722	201.424531	935.269092	4.439906	266.821850	721.516678	-29.280314	273.405453	708.942983	-147.910473	210.899077	564.068374	-7.007823	207.861868	475.728721	-22.673240	160.629142	401.291354	-27.652013	237.645367	469.969240	-46.844210	113.122298	277.715122	-55.743959	144.628173	288.133399	-132.659062	47.998105	255.865262	-93.901530	338.298307	146.583899	-108.277934	220.732389	163.811479	-34.131255	250.685366	180.838764	-146.353566	117.696932	1122.654474	-437.113659	202.670059	1117.184968	-452.216520	216.329423	1148.214806	-436.528285	275.094067	1067.059992	-467.679591	409.750736	1024.371257	-471.962617	432.653913	1010.880395	-339.760111	326.274456	872.132522	-469.952072	309.149957	792.077238	-444.373319	248.901107	726.420204	-429.701457	340.101276	780.758131	-425.413514	185.760914	622.165292	-399.538721	229.110120	633.800774	-312.316837	115.304339	595.080690	-346.691637	408.847564	499.030765	-351.944212	317.712383	522.174364	-308.128089	286.977641	511.551542	-421.879807	-211.842680	947.185038	-224.527926	-4.572096	84.741299	-432.558453	-8.864129	80.957740	-32.202690	
1253	6.2650	495.976847	1396.370698	-141.327356	410.473365	1409.133573	-440.265871	392.662619	1494.524777	-277.507891	400.638307	1320.824189	-284.759887	548.214066	1153.083456	-1.288630	742.582548	937.948397	-43.002431	503.915609	1157.367249	-485.795615	735.507129	952.390681	-419.860684	-108.338323	1204.605351	-165.018162	16.938753	1263.481546	-373.387672	88.234028	1237.590677	-12.841239	57.864291	1192.583863	-337.801009	108.676132	1171.321515	-62.037873	-72.742625	1253.238127	-120.526436	-87.487660	1262.167653	-199.182971	22.979601	1109.016270	-0.806638	-7.010943	1185.377578	-388.918502	103.731807	969.507437	11.331701	174.191901	915.178635	13.683170	209.739851	837.207169	4.465253	202.694598	937.503969	4.604122	269.555989	723.697055	-28.134193	276.411576	711.155983	-146.844090	210.813490	567.192819	-6.284325	205.709878	479.110272	-22.266667	156.908275	405.627181	-27.542773	235.345519	472.754952	-46.407925	106.915631	283.384957	-55.844392	138.571372	293.023031	-132.499878	41.167432	263.222017	-94.091346	328.452096	146.164440	-108.258218	211.354358	166.779250	-34.319614	241.956782	182.734481	-146.423300	117.516757	1122.367949	-436.587966	202.797471	1116.544039	-450.718505	216.197339	1147.655680	-435.417954	274.949440	1066.288129	-466.143029	409.970682	1023.816653	-470.241243	432.271552	1010.243598	-337.498102	328.666665	870.148708	-468.450962	312.697033	789.663955	-443.661755	253.328780	723.077393	-429.250355	343.825399	778.579245	-424.707934	192.041001	616.632783	-399.729601	234.802656	629.347462	-312.461493	121.910772	587.430409	-346.902862	417.970304	500.155325	-352.312246	326.391026	520.602141	-308.405688	296.050378	508.951555	-422.040825	-211.755754	947.188150	-224.760633	-4.605469	84.781020	-432.537440	-8.877879	80.963767	-32.181649	
1254	6.2700	496.452064	1395.604543	-143.276135	409.016348	1409.329077	-441.771881	392.461235	1494.394695	-278.799141	399.928498	1320.691003	-286.434989	547.569124	1152.570928	-1.617394	742.431768	937.752509	-42.690417	502.131950	1157.371911	-486.515192	734.469068	953.149403	-420.127475	-108.944069	1205.879485	-164.675346	16.233239	1265.078355	-373.101424	88.445092	1237.956901	-12.211365	57.473931	1192.727200	-337.657130	108.310796	1171.581223	-61.794933	-72.869120	1254.099550	-120.304988	-87.408571	1262.776538	-198.862471	23.097516	1109.762982	-0.709838	-7.326791	1185.372051	-388.869490	104.870449	970.937533	11.254649	175.816058	917.356629	13.783739	212.164469	839.691591	4.971847	204.008566	939.857114	4.671562	272.522048	726.201282	-27.010803	279.693649	713.611559	-145.837935	210.849892	570.691447	-5.649775	203.914560	482.730412	-21.845834	153.524414	410.346259	-27.268042	233.384258	475.842923	-45.965707	100.886913	289.615050	-55.835353	132.908160	298.445679	-132.447779	34.743037	271.141386	-94.372198	318.719573	146.152281	-108.205737	202.337761	170.237308	-34.532342	233.314342	185.111574	-146.665633	117.418268	1121.730418	-436.418765	202.766162	1115.392652	-449.855458	216.506177	1146.805002	-435.740808	274.900789	1065.151408	-465.794194	410.144327	1021.850156	-468.097581	431.774493	1008.594417	-335.442427	330.800671	867.191902	-467.076558	315.916449	786.173446	-443.081914	257.477073	718.780872	-429.099389	347.286988	775.429685	-424.024964	198.156957	610.237114	-400.002357	240.434758	623.937062	-312.421811	128.447576	578.810970	-347.302530	427.224858	500.926005	-351.909874	334.821559	518.577325	-308.570826	304.993002	505.619155	-422.253290	-211.794883	947.208663	-224.666148	-4.616954	84.825321	-432.513960	-8.896794	80.966155	-32.162886	
1255	6.2750	496.774994	1394.830628	-144.967036	407.638643	1409.498452	-443.097609	392.291315	1494.250672	-279.739046	399.196692	1320.546117	-287.802818	546.825266	1152.005856	-1.869216	741.315181	936.783461	-43.398870	499.308980	1157.161736	-488.632892	733.415636	953.780131	-420.395809	-109.025479	1206.315712	-164.535292	15.610916	1266.428824	-373.030059	88.506745	1238.278616	-12.193734	57.129527	1192.704761	-337.609360	107.943670	1172.044786	-61.691609	-73.019019	1254.594592	-120.156049	-87.280650	1263.170046	-198.613906	23.189369	1110.546144	-0.638743	-7.556231	1185.080195	-388.817384	106.095322	972.422896	11.097259	177.528783	919.689658	13.785987	214.686606	842.398643	5.295759	205.590338	942.402199	4.678190	275.682862	729.055831	-25.898471	283.345480	716.432688	-144.821040	211.311712	574.516492	-4.993334	202.354599	486.799329	-21.609384	150.506166	415.596247	-27.089077	231.711514	479.394917	-45.643905	95.071342	296.300836	-55.970099	127.486397	304.436307	-132.450675	28.658314	279.620623	-94.724342	309.098132	146.857196	-108.153737	193.521039	174.444513	-34.683586	224.996083	188.039319	-146.829889	117.396575	1120.416432	-436.417892	202.733062	1113.396961	-449.262081	216.599237	1144.856548	-435.364249	274.639600	1062.488897	-464.288406	410.035127	1019.046945	-466.745083	431.203187	1006.053591	-333.909126	332.501473	863.501959	-466.862228	318.873425	781.745997	-442.539461	261.382155	713.482201	-429.024256	350.408959	771.253280	-423.669731	204.170506	602.977668	-400.480593	248.101351	617.869563	-311.463734	134.829514	569.381609	-347.850687	435.914477	500.667299	-352.085900	343.165898	515.516309	-307.691762	314.019701	501.022984	-421.583780	-211.837288	947.239546	-224.546903	-4.651902	84.862224	-432.495022	-8.905330	80.970688	-32.135719	
1256	6.2800	496.997779	1394.021776	-146.144136	406.417273	1409.702699	-444.210887	392.139516	1494.141653	-280.342207	398.465838	1320.438301	-288.830254	546.185276	1151.442107	-2.037161	741.129135	936.487752	-43.120821	497.379049	1156.829284	-489.421848	732.377025	954.409920	-420.728292	-109.087091	1206.688747	-164.664717	15.164707	1267.411926	-373.116718	88.274054	1238.531273	-12.796037	56.834732	1192.524938	-337.664591	107.546874	1172.498772	-61.783994	-73.249552	1255.048110	-120.208248	-87.118158	1263.327642	-198.505850	23.288896	1111.211244	-0.592914	-7.726573	1184.296747	-388.736407	107.334379	974.258523	10.928805	179.358234	922.178189	13.625412	217.393409	845.265262	5.583678	207.178295	945.062342	4.630805	278.998831	732.241695	-24.805604	287.128295	719.404348	-143.826855	211.920757	578.619149	-4.433088	201.079634	491.213682	-21.363703	147.710661	421.144786	-26.877911	230.101914	483.290181	-45.548997	89.425848	303.759290	-55.531764	122.480852	310.750323	-132.564351	22.878674	288.542363	-95.075693	299.724953	148.146555	-108.087926	185.045925	179.244303	-34.758631	216.501867	191.271876	-147.113260	117.443347	1118.326430	-436.339891	202.752481	1110.629936	-448.935244	216.801086	1142.109990	-435.240278	274.346932	1059.157783	-463.422749	409.767694	1014.991647	-465.220069	429.855887	1002.096323	-332.147843	334.006977	858.357666	-466.063784	321.564275	776.222516	-442.167931	264.952997	707.152769	-429.035709	353.293054	766.079643	-423.467566	209.862394	594.824078	-400.901882	253.384631	610.768174	-311.737059	141.281407	558.907016	-348.523967	444.264127	500.014339	-352.216352	351.099875	511.834576	-308.101525	322.437732	496.114592	-421.931665	-211.846617	947.258804	-224.445763	-4.657816	84.884527	-432.461522	-8.924004	80.994824	-32.110925	
